<svg xmlns="http://www.w3.org/2000/svg" width="111" height="28" viewBox="0 0 111 28" fill="#fff"><path d="M0.00805272 9.78348L5.04875 6.02309V22.192H11.2168C13.5439 22.192 15.1624 20.6862 15.1624 18.504C15.1624 16.3219 13.5439 14.8161 11.2168 14.8161H7.83482L12.1589 10.4921C13.3587 9.2923 13.6244 8.53539 13.6244 7.70601C13.6244 6.0553 12.3441 4.88773 10.3149 4.88773H0.00805272V0.378479H11.1765C15.5408 0.378479 18.657 3.01156 18.657 6.80416C18.657 8.60786 18.2786 9.96063 16.9258 11.3134L16.0239 12.2153C18.4718 13.415 20.195 15.8629 20.195 18.9872C20.195 23.5367 16.5473 26.6932 11.4342 26.6932H0V9.78348H0.00805272Z" fill="#fff"></path><path d="M22.9408 0.386536H27.9815V5.95063H22.9408V0.386536ZM22.9408 10.8383L27.9815 7.07794V26.7012H22.9408V10.8383Z" fill="#fff"></path><path d="M31.5889 20.3077V5.95062L36.6296 2.03723V7.44833H42.1212V12.1508H36.6296V19.7441C36.6296 21.1371 37.4912 21.9987 38.8842 21.9987H42.1212V26.7012H37.9502C33.9965 26.7012 31.5889 24.2936 31.5889 20.3077Z" fill="#fff"></path><path d="M51.3249 7.4483H54.7068V12.1508H51.4779C50.0849 12.1508 49.2233 13.0124 49.2233 14.4054V26.7012H44.1826V14.5987C44.1826 10.0089 46.7432 7.4483 51.3249 7.4483Z" fill="#fff"></path><path d="M55.0128 17.0788C55.0128 11.6275 58.8135 7.07794 64.8607 7.07794C70.8757 7.07794 74.7086 11.2893 74.7086 17.0788C74.7086 17.3445 74.7086 17.6022 74.6683 17.8679H63.3952L69.1848 13.9223C68.3232 12.4568 66.8496 11.5147 64.8607 11.5147C61.6237 11.5147 59.7073 14.0351 59.7073 17.0788C59.7073 20.8392 62.1149 22.6429 65.0459 22.6429C66.7772 22.6429 68.3151 21.894 69.217 20.3883H74.2577C72.9452 24.7848 69.072 27.0797 65.0459 27.0797C59.7878 27.0797 55.0128 23.7702 55.0128 17.0788Z" fill="#fff"></path><path d="M84.4518 0.386536H90.1286V5.08904H84.6048C83.2117 5.08904 82.3501 5.95063 82.3501 7.34366V9.03463H92.649V26.7093H87.6082V13.7291H82.3421V26.7012H77.3014V7.52886C77.3094 2.93909 79.8701 0.386536 84.4518 0.386536Z" fill="#fff"></path><path d="M96.7878 3.91338L101.829 0V26.6931H96.7878V3.91338Z" fill="#fff"></path><path d="M105.959 3.91338L111 0V26.6931H105.959V3.91338Z" fill="#fff"></path></svg>
