<?xml version="1.0" encoding="UTF-8" standalone="no"?>
<svg xmlns:dc="http://purl.org/dc/elements/1.1/" xmlns:cc="http://creativecommons.org/ns#" xmlns:rdf="http://www.w3.org/1999/02/22-rdf-syntax-ns#" xmlns:svg="http://www.w3.org/2000/svg" xmlns="http://www.w3.org/2000/svg" xmlns:xlink="http://www.w3.org/1999/xlink" xmlns:sodipodi="http://sodipodi.sourceforge.net/DTD/sodipodi-0.dtd" xmlns:inkscape="http://www.inkscape.org/namespaces/inkscape" viewBox="310 240 200 600" version="1.1" width="744.09448" height="744.3622" id="svg2" sodipodi:docname="LNCal_01.svg">
  <sodipodi:namedview pagecolor="#ffffff" bordercolor="#666666" borderopacity="1" objecttolerance="10" gridtolerance="10" guidetolerance="10" inkscape:pageopacity="0" inkscape:pageshadow="2" inkscape:window-width="1680" inkscape:window-height="997" id="namedview99" showgrid="false" inkscape:zoom="0.63429569" inkscape:cx="254.71743" inkscape:cy="325.88213" inkscape:window-x="-8" inkscape:window-y="-8" inkscape:window-maximized="1" inkscape:current-layer="svg2"/>
  <defs id="defs4">
    <linearGradient id="linearGradient4858">
      <stop id="stop4860" style="stop-color:#000000;stop-opacity:0.17054264" offset="0"/>
      <stop id="stop4862" style="stop-color:#000000;stop-opacity:0" offset="1"/>
    </linearGradient>
    <linearGradient id="linearGradient4627">
      <stop id="stop4629" style="stop-color:#ffffff;stop-opacity:0.21854305" offset="0"/>
      <stop id="stop4631" style="stop-color:#ffffff;stop-opacity:0" offset="1"/>
    </linearGradient>
    <linearGradient id="linearGradient4503">
      <stop id="stop4505" style="stop-color:#ffffff;stop-opacity:1" offset="0"/>
      <stop id="stop4511" style="stop-color:#ffffff;stop-opacity:1" offset="0.5"/>
      <stop id="stop4507" style="stop-color:#ffffff;stop-opacity:0" offset="1"/>
    </linearGradient>
    <linearGradient id="linearGradient4151">
      <stop id="stop4153" style="stop-color:#000000;stop-opacity:0.271" offset="0"/>
      <stop id="stop4155" style="stop-color:#000000;stop-opacity:0" offset="1"/>
    </linearGradient>
    <linearGradient id="linearGradient4027">
      <stop id="stop4029" style="stop-color:#000000;stop-opacity:0.10465116" offset="0"/>
      <stop id="stop4031" style="stop-color:#000000;stop-opacity:0" offset="1"/>
    </linearGradient>
    <linearGradient id="linearGradient3829">
      <stop id="stop3831" style="stop-color:#000000;stop-opacity:0.27000001" offset="0"/>
      <stop id="stop3833" style="stop-color:#000000;stop-opacity:0" offset="1"/>
    </linearGradient>
    <linearGradient id="linearGradient3785">
      <stop id="stop3787" style="stop-color:#000000;stop-opacity:0.07843138" offset="0"/>
      <stop id="stop3789" style="stop-color:#000000;stop-opacity:0" offset="1"/>
    </linearGradient>
    <filter color-interpolation-filters="sRGB" id="filter4173">
      <feGaussianBlur id="feGaussianBlur4175" stdDeviation="7.6185863"/>
    </filter>
    <linearGradient x1="-411.3147" y1="426.06665" x2="-388.08121" y2="501.1337" id="linearGradient4240" xlink:href="#linearGradient4027" gradientUnits="userSpaceOnUse"/>
    <linearGradient x1="-359.55786" y1="376.7897" x2="-359.55786" y2="480.2092" id="linearGradient4242" xlink:href="#linearGradient3785" gradientUnits="userSpaceOnUse"/>
    <linearGradient x1="-490.49591" y1="-92.712517" x2="-490.33707" y2="-76.084808" id="linearGradient4244" xlink:href="#linearGradient4151" gradientUnits="userSpaceOnUse" gradientTransform="matrix(0.75479497,-0.65596078,0.65596078,0.75479497,0,0)"/>
    <linearGradient x1="-490.49591" y1="-92.712517" x2="-489.32938" y2="-76.155411" id="linearGradient4246" xlink:href="#linearGradient3829" gradientUnits="userSpaceOnUse" gradientTransform="matrix(0.75479497,-0.65596078,0.65596078,0.75479497,144.0625,0)"/>
    <linearGradient x1="-411.3147" y1="426.06665" x2="-388.08121" y2="501.1337" id="linearGradient4991" xlink:href="#linearGradient4027" gradientUnits="userSpaceOnUse" gradientTransform="matrix(1.7535444,0,0,1.7535444,1082.3256,-357.63512)"/>
    <linearGradient x1="-359.55786" y1="376.7897" x2="-359.55786" y2="480.2092" id="linearGradient4993" xlink:href="#linearGradient3785" gradientUnits="userSpaceOnUse" gradientTransform="matrix(1.7535444,0,0,1.7535444,1082.3256,-357.63512)"/>
    <linearGradient x1="-490.49591" y1="-92.712517" x2="-490.33707" y2="-76.084808" id="linearGradient4995" xlink:href="#linearGradient4151" gradientUnits="userSpaceOnUse" gradientTransform="matrix(1.3235665,-1.1502564,1.1502564,1.3235665,1082.3256,-357.63512)"/>
    <linearGradient x1="-490.49591" y1="-92.712517" x2="-489.32938" y2="-76.155411" id="linearGradient4997" xlink:href="#linearGradient3829" gradientUnits="userSpaceOnUse" gradientTransform="matrix(1.3235665,-1.1502564,1.1502564,1.3235665,1334.9456,-357.63512)"/>
    <linearGradient x1="1694.7607" y1="491.90753" x2="1694.7607" y2="439.28821" id="linearGradient4999" xlink:href="#linearGradient4858" gradientUnits="userSpaceOnUse" gradientTransform="matrix(0.83605208,0,0,1,-958.52238,-45.205781)"/>
    <linearGradient x1="-490.49591" y1="-92.712517" x2="-489.32938" y2="-76.155411" id="linearGradient4301" xlink:href="#linearGradient3829" gradientUnits="userSpaceOnUse" gradientTransform="matrix(1.3235665,-1.1502564,1.1502564,1.3235665,975.80711,756.65055)"/>
    <linearGradient x1="-490.49591" y1="-92.712517" x2="-490.33707" y2="-76.084808" id="linearGradient4304" xlink:href="#linearGradient4151" gradientUnits="userSpaceOnUse" gradientTransform="matrix(1.3235665,-1.1502564,1.1502564,1.3235665,723.18711,756.65055)"/>
    <linearGradient x1="-359.55786" y1="376.7897" x2="-359.55786" y2="480.2092" id="linearGradient4312" xlink:href="#linearGradient3785" gradientUnits="userSpaceOnUse" gradientTransform="matrix(1.7535444,0,0,1.7535444,723.18711,756.65055)"/>
    <linearGradient x1="-411.3147" y1="426.06665" x2="-388.08121" y2="501.1337" id="linearGradient4347" xlink:href="#linearGradient4027" gradientUnits="userSpaceOnUse" gradientTransform="matrix(1.7535444,0,0,1.7535444,723.18711,756.65055)"/>
    <linearGradient x1="-406.42664" y1="443.98953" x2="-391.3399" y2="509.28046" id="linearGradient4645" xlink:href="#linearGradient4027" gradientUnits="userSpaceOnUse" gradientTransform="matrix(1.7535444,0,0,1.7535444,386.04428,1208.0792)"/>
    <linearGradient x1="-359.55786" y1="376.7897" x2="-359.55786" y2="480.2092" id="linearGradient4647" xlink:href="#linearGradient3785" gradientUnits="userSpaceOnUse" gradientTransform="matrix(1.7535444,0,0,1.7535444,386.04428,1208.0792)"/>
    <linearGradient x1="-490.49591" y1="-92.712517" x2="-490.33707" y2="-76.084808" id="linearGradient4649" xlink:href="#linearGradient4151" gradientUnits="userSpaceOnUse" gradientTransform="matrix(1.3235665,-1.1502564,1.1502564,1.3235665,386.04428,1208.0792)"/>
    <linearGradient x1="-490.49591" y1="-92.712517" x2="-489.32938" y2="-76.155411" id="linearGradient4651" xlink:href="#linearGradient3829" gradientUnits="userSpaceOnUse" gradientTransform="matrix(1.3235665,-1.1502564,1.1502564,1.3235665,638.66428,1208.0792)"/>
  </defs>
  <metadata id="metadata7">
    <rdf:RDF>
      <cc:Work rdf:about="">
        <dc:format>image/svg+xml</dc:format>
        <dc:type rdf:resource="http://purl.org/dc/dcmitype/StillImage"/>
        <dc:title/>
      </cc:Work>
    </rdf:RDF>
  </metadata>
  <g id="layer1" transform="matrix(0.52578757,0,0,0.52578757,163.92208,274.30355)">
    <g transform="matrix(1.979899,0,0,1.979899,196.43315,-2241.1409)" id="g4350">
      <path d="m -126.93185,1567.3661 420.50058,-152.7518 166.33621,301.8601 -513.53802,0 z" id="path4261" style="fill:url(#linearGradient4347);fill-opacity:1;stroke:none" inkscape:connector-curvature="0" sodipodi:nodetypes="ccccc"/>
      <path d="m -456.1875,233.78125 c -7.51857,0 -13.5625,6.07518 -13.5625,13.59375 l 0,20.34375 c -9.93192,1.77255 -18.53624,9.90206 -18.3125,19.8125 -0.0543,1.11214 0.0337,2.24916 0.21875,3.40625 l 13.5625,84.84375 -0.0937,0.5 -13.46875,84.375 c -0.18339,1.14666 -0.27051,2.27242 -0.21875,3.375 -0.27477,11.24544 10.83269,20.1875 22.34375,20.1875 l 212.875,0 c 12.26714,0 22.125,-10.00658 22.125,-22.4375 L -230.75,461.625 c 0.0142,-0.32654 0.0312,-0.6386 0.0312,-0.96875 l -13.46875,-84.375 -0.0937,-0.5 13.5625,-84.84375 c 0,-0.32123 -0.0178,-0.65094 -0.0312,-0.96875 l 0.0312,-0.15625 c 0,-11.11087 -7.87741,-20.30172 -18.3125,-22.125 l 0,-20.3125 c 0,-7.51857 -6.04393,-13.59375 -13.5625,-13.59375 l -193.59375,0 z" transform="matrix(1.7535444,0,0,1.7149182,723.18711,762.17353)" id="path4263" style="fill:#000000;fill-opacity:0.25909089;stroke:none;filter:url(#filter4173)" inkscape:connector-curvature="0"/>
      <rect width="387.03232" height="344.44623" rx="23.798101" ry="23.798101" x="-100.53631" y="1164.0386" id="rect4265" style="fill:#ff7d87;fill-opacity:1;stroke:none"/>
      <rect width="387.03232" height="344.44623" rx="23.798101" ry="23.798101" x="-100.53631" y="1166.613" id="rect4267" style="fill:#fa404e;fill-opacity:1;stroke:none"/>
      <path d="m -93.46358,1225.482 373.25445,0 c 21.51098,0 38.82849,17.5487 38.82849,39.3469 l -23.79811,150.7874 -403.31521,0 -23.7981,-150.7874 c -3.39714,-21.5247 17.31751,-39.3469 38.82848,-39.3469 z" id="path4269" style="fill:#ffffff;fill-opacity:1;stroke:none" inkscape:connector-curvature="0"/>
      <path d="m -93.46358,1227.9871 373.25445,0 c 21.51098,0 38.82849,17.3175 38.82849,38.8284 l -23.79811,148.8008 -403.31521,0 -23.7981,-148.8008 c -3.39714,-21.241 17.31751,-38.8284 38.82848,-38.8284 z" id="path4273" style="fill:#ffffff;fill-opacity:1;stroke:none" inkscape:connector-curvature="0"/>
      <path d="m -93.46358,1585.7101 373.25445,0 c 21.51098,0 42.66582,-17.6626 38.82849,-38.8285 l -23.79811,-131.2653 -403.31521,0 -23.7981,131.2653 c -3.83734,21.1659 17.31751,38.8285 38.82848,38.8285 z" id="path4275" style="fill:#ffffff;fill-opacity:1;stroke:none" inkscape:connector-curvature="0"/>
      <g transform="translate(-525.71429,1062.8571)" id="g4475" style="fill:#000000;fill-opacity:0.05454544">
        <path d="m 421.89359,188.73128 7.2813,58.52769 50.5625,0 -4.6563,-58.52769 z" id="path4473" style="fill:#000000;fill-opacity:0.05454544;stroke:none" inkscape:connector-curvature="0"/>
        <path d="m 490.11229,188.73128 4.6876,58.52769 49.375,0 -2.375,-58.52769 z" id="path4471" style="fill:#000000;fill-opacity:0.05454544;stroke:none" inkscape:connector-curvature="0"/>
        <path d="m 556.79989,188.73128 2.375,58.52769 52.2187,0 0,-58.52769 z" id="path4469" style="fill:#000000;fill-opacity:0.11818183;stroke:none" inkscape:connector-curvature="0"/>
        <path d="m 626.39359,188.73128 0,58.52769 52.1875,0 2.375,-58.52769 z" id="path4467" style="fill:#000000;fill-opacity:0.05454544;stroke:none" inkscape:connector-curvature="0"/>
        <path d="m 695.95609,188.73128 -2.375,58.52769 49.375,0 4.6875,-58.52769 z" id="path4465" style="fill:#000000;fill-opacity:0.11818183;stroke:none" inkscape:connector-curvature="0"/>
        <path d="m 762.67489,188.73128 -4.6563,58.52769 50.5625,0 7.2812,-58.52769 z" id="path4463" style="fill:#000000;fill-opacity:0.05454544;stroke:none" inkscape:connector-curvature="0"/>
        <path d="m 431.17489,263.40454 7.1562,57.65314 47.2813,0 -4.5938,-57.65314 z" id="path4461" style="fill:#000000;fill-opacity:0.11818183;stroke:none" inkscape:connector-curvature="0"/>
        <path d="m 496.08109,263.40454 4.625,57.65314 46.4688,0 -2.3438,-57.65314 z" id="path4459" style="fill:#000000;fill-opacity:0.11818183;stroke:none" inkscape:connector-curvature="0"/>
        <path d="m 559.83109,263.40454 2.375,57.65314 49.1875,0 0,-57.65314 z" id="path4457" style="fill:#000000;fill-opacity:0.05454544;stroke:none" inkscape:connector-curvature="0"/>
        <path d="m 626.39359,263.40454 0,57.65314 49.1563,0 2.375,-57.65314 z" id="path4455" style="fill:#000000;fill-opacity:0.05454544;stroke:none" inkscape:connector-curvature="0"/>
        <path d="m 692.92489,263.40454 -2.3438,57.65314 46.4688,0 4.625,-57.65314 z" id="path4453" style="fill:#000000;fill-opacity:0.05454544;stroke:none" inkscape:connector-curvature="0"/>
        <path d="m 756.73729,263.40454 -4.5937,57.65314 47.2813,0 7.1562,-57.65314 z" id="path4451" style="fill:#000000;fill-opacity:0.05454544;stroke:none" inkscape:connector-curvature="0"/>
        <path d="m 437.42489,372.52353 -6.25,50.32035 49.8437,0 4,-50.32035 z" id="path4449" style="fill:#000000;fill-opacity:0.05454544;stroke:none" inkscape:connector-curvature="0"/>
        <path d="m 500.11229,372.52353 -4.0312,50.32035 48.75,0 2.0625,-50.32035 z" id="path4447" style="fill:#000000;fill-opacity:0.05454544;stroke:none" inkscape:connector-curvature="0"/>
        <path d="m 561.89359,372.52353 -2.0625,50.32035 51.5625,0 0,-50.32035 z" id="path4445" style="fill:#000000;fill-opacity:0.05454544;stroke:none" inkscape:connector-curvature="0"/>
        <path d="m 626.39359,372.52353 0,50.32035 51.5313,0 -2.0626,-50.32035 z" id="path4443" style="fill:#000000;fill-opacity:0.05454544;stroke:none" inkscape:connector-curvature="0"/>
        <path d="m 690.86229,372.52353 2.0626,50.32035 48.75,0 -4.0313,-50.32035 z" id="path4441" style="fill:#000000;fill-opacity:0.05454544;stroke:none" inkscape:connector-curvature="0"/>
        <path d="m 752.73729,372.52353 4,50.32035 49.8438,0 -6.25,-50.32035 z" id="path4439" style="fill:#000000;fill-opacity:0.05454544;stroke:none" inkscape:connector-curvature="0"/>
        <path d="m 429.17489,438.98945 -7.2813,58.52769 53.1875,0 4.6563,-58.52769 z" id="path4437" style="fill:#000000;fill-opacity:0.05454544;stroke:none" inkscape:connector-curvature="0"/>
        <path d="m 494.79989,438.98945 -4.6876,58.52769 51.6876,0 2.375,-58.52769 z" id="path4435" style="fill:#000000;fill-opacity:0.11818183;stroke:none" inkscape:connector-curvature="0"/>
        <path d="m 559.17489,438.98945 -2.375,58.52769 54.5937,0 0,-58.52769 z" id="path4433" style="fill:#000000;fill-opacity:0.05454544;stroke:none" inkscape:connector-curvature="0"/>
        <path d="m 626.39359,438.98945 0,58.52769 54.5625,0 -2.375,-58.52769 z" id="path4431" style="fill:#000000;fill-opacity:0.05454544;stroke:none" inkscape:connector-curvature="0"/>
        <path d="m 693.58109,438.98945 2.375,58.52769 51.6875,0 -4.6875,-58.52769 z" id="path4429" style="fill:#000000;fill-opacity:0.11818183;stroke:none" inkscape:connector-curvature="0"/>
        <path d="m 758.01859,438.98945 4.6563,58.52769 53.1874,0 -7.2812,-58.52769 z" id="rect4366" style="fill:#000000;fill-opacity:0.07727272;stroke:none" inkscape:connector-curvature="0"/>
      </g>
      <path d="m -93.47899,1227.9871 c -21.51097,0 -42.19431,17.6109 -38.79717,38.8519 l 23.78245,148.7773 98.69926,170.0938 289.60123,0 c 21.51097,0 38.79717,-17.2862 38.79717,-38.7972 L 294.8215,1415.6163 318.60395,1266.839 c 0,-21.511 -17.2862,-38.8519 -38.79717,-38.8519 z" id="path4277" style="fill:url(#linearGradient4312);fill-opacity:1;stroke:none" inkscape:connector-curvature="0"/>
      <g transform="translate(-525.71429,1062.8571)" id="g5184">
        <path d="m 618.64735,200.21512 c -6.05772,9.3e-4 -12.1208,0.16929 -15.41826,0.51029 -25.55951,2.64321 -48.84279,10.41336 -69.67191,23.23984 -42.79084,26.35044 -68.43306,70.69495 -68.4758,118.43063 -0.0334,37.3397 16.14209,73.65824 44.60085,100.14667 26.32364,24.50112 60.30575,38.95792 98.18168,41.77461 4.88748,0.36351 21.3515,0.1272 26.43532,-0.38056 35.42082,-3.53773 68.13051,-17.88595 92.84601,-40.73672 25.84522,-23.89532 40.87486,-53.48602 44.77839,-88.12459 0.24383,-2.16337 0.39011,-7.03708 0.38314,-13.00807 -0.0119,-10.1858 -0.31932,-13.96865 -1.7848,-22.3317 C 764.102,283.099 742.33518,249.94669 710.2786,227.99568 688.03066,212.7612 662.71424,203.70683 634.02825,200.72541 c -3.27083,-0.33994 -9.32319,-0.51126 -15.3809,-0.51029 z" id="path5199" style="fill:#f7931a;fill-opacity:1" inkscape:connector-curvature="0"/>
        <path d="m 618.65625,224.15625 c -5.6438,8.7e-4 -11.91407,0.26593 -12.96875,0.375 -22.25754,2.30174 -41.8303,8.89309 -59.5625,19.8125 -36.21435,22.30066 -57.05867,58.91401 -57.09375,98.09375 -0.0272,30.41637 13.18269,60.42326 36.96875,82.5625 22.24114,20.70127 50.76741,32.99168 83.65625,35.4375 0.17485,0.013 21.5696,-0.24142 22.28125,-0.3125 30.49655,-3.04591 58.31148,-15.40128 78.96875,-34.5 22.00973,-20.3492 33.94236,-43.89918 37.25,-73.25 -0.0908,0.80592 0.22527,-4.6946 0.21875,-10.28125 -0.0113,-9.71665 -0.0544,-10.50418 -1.40625,-18.21875 -5.25572,-29.99258 -23.26579,-57.66873 -50.21875,-76.125 -18.91612,-12.95299 -40.02337,-20.60337 -65.1875,-23.21875 -1.02713,-0.10675 -7.27527,-0.3759 -12.90625,-0.375 z" id="path5196" style="fill:#ffffff;fill-opacity:1" inkscape:connector-curvature="0"/>
        <path d="m 612.64824,249.86898 c 0.64368,-0.043 3.13346,0.44294 8.09226,1.58275 4.42626,1.01742 8.15829,1.94297 8.28848,2.04983 0.13021,0.10686 -1.26451,5.75525 -3.10233,12.55833 -1.83783,6.80308 -3.2892,12.41998 -3.22382,12.48048 0.23908,0.22129 13.17492,2.95859 13.32512,2.8196 0.0852,-0.0789 1.62982,-5.58974 3.4294,-12.24701 1.79957,-6.65722 3.32884,-12.1989 3.40135,-12.30748 0.10461,-0.15658 8.73571,1.7222 15.465,3.36444 0.6867,0.1676 1.12133,0.43768 1.12133,0.70057 0,0.23612 -1.49281,5.97215 -3.31727,12.74863 -1.82444,6.77645 -3.20367,12.41595 -3.06496,12.52373 0.13872,0.10777 1.66518,0.6726 3.39202,1.25408 4.70112,1.58321 12.28642,5.07045 15.99762,7.36031 3.95911,2.44284 8.07824,6.15449 10.26016,9.24575 3.8252,5.41961 5.02233,11.65848 3.65366,19.01051 -2.09838,11.27154 -8.27124,18.26366 -18.81029,21.31111 -2.22991,0.6448 -2.54689,0.90457 -1.50445,1.21087 1.14181,0.33539 6.66922,3.92282 8.69031,5.63914 3.88473,3.29882 6.79874,7.83439 7.92405,12.3421 0.7936,3.17898 0.71567,9.26759 -0.15885,12.98214 -2.88143,12.23857 -9.59749,21.45168 -18.73554,25.69614 -6.14497,2.85422 -11.86887,3.92371 -20.92212,3.90069 -6.12297,-0.0155 -10.74015,-0.40984 -17.8852,-1.51357 -2.10373,-0.32495 -3.86611,-0.54144 -3.92465,-0.48433 -0.0585,0.057 -1.64772,5.83288 -3.53219,12.83509 -2.40085,8.921 -3.5578,12.75058 -3.84989,12.78322 -0.51495,0.0576 -15.9973,-3.58512 -16.24993,-3.82286 -0.10025,-0.0944 1.29657,-5.66184 3.1117,-12.37669 1.81512,-6.71497 3.30881,-12.42773 3.30791,-12.69672 -0.001,-0.40575 -1.1304,-0.76045 -6.60649,-2.04983 -4.3823,-1.03184 -6.64053,-1.45056 -6.71863,-1.24545 -0.0647,0.16993 -1.60527,5.83991 -3.42005,12.59293 -1.81479,6.75305 -3.36027,12.37162 -3.43874,12.48915 -0.14568,0.21817 -16.18124,-3.3874 -16.5396,-3.71907 -0.1085,-0.10043 1.31731,-5.81744 3.16775,-12.69673 1.85045,-6.87925 3.36845,-12.65564 3.36399,-12.8351 -0.0111,-0.43228 -0.97523,-0.67262 -18.24963,-4.67909 -8.14085,-1.88813 -14.96964,-3.48777 -15.16597,-3.55474 -0.23385,-0.0797 1.04262,-3.11207 3.69104,-8.78739 2.22362,-4.76502 4.13044,-8.7489 4.24236,-8.85655 0.11193,-0.10767 2.83069,0.41927 6.03649,1.17625 6.84915,1.61733 8.47531,1.83755 10.0172,1.36655 1.67043,-0.51025 3.32399,-2.0312 3.85924,-3.54608 0.25212,-0.71355 4.64133,-16.80327 9.75556,-35.75494 8.45964,-31.3486 9.29059,-34.6199 9.17621,-36.25656 -0.21698,-3.10497 -1.88758,-5.26775 -5.14877,-6.67703 -0.98787,-0.42688 -4.61988,-1.41805 -8.07357,-2.19684 -3.45369,-0.77882 -6.3677,-1.49917 -6.47567,-1.60005 -0.10795,-0.10094 0.76685,-3.7939 1.95299,-8.20791 1.62167,-6.03478 2.27933,-8.04068 2.63511,-8.10411 0.26023,-0.0464 7.38237,1.52408 15.82943,3.49419 8.44706,1.97014 15.90692,3.66936 16.57697,3.77096 1.46687,0.22247 0.85075,1.87206 4.92451,-13.31945 1.68024,-6.26579 3.15547,-11.52975 3.27054,-11.70206 0.0184,-0.0277 0.067,-0.0458 0.15885,-0.0518 z m 5.76551,47.36187 c -0.35706,0 -1.36206,3.34887 -4.53204,15.08385 -2.24077,8.29508 -4.07416,15.30893 -4.07416,15.58547 0,0.42626 0.98987,0.72365 6.5037,1.94601 5.60341,1.24239 8.45964,1.76965 12.78315,2.36119 0.49338,0.0675 3.31913,0.0889 6.27944,0.0518 4.90299,-0.0613 5.59277,-0.12781 7.79324,-0.79571 7.09876,-2.15466 10.92298,-7.37701 10.51245,-14.34868 -0.12316,-2.0912 -0.2912,-2.68819 -1.35494,-4.72233 -0.96345,-1.84237 -1.65946,-2.71268 -3.31726,-4.16017 -3.61826,-3.15924 -9.11653,-5.78329 -16.3714,-7.81869 -3.44147,-0.96553 -13.34019,-3.18282 -14.22218,-3.18282 z m -12.97939,46.88619 c -0.0276,0 -0.0415,0.004 -0.0467,0.008 -0.15112,0.13988 -9.02385,32.98141 -9.12014,33.75702 -0.0567,0.45661 0.5201,0.67279 4.2704,1.59141 8.09145,1.98183 15.65103,3.35586 21.52951,3.91799 2.70579,0.25875 8.50155,0.15347 11.06378,-0.20758 4.8113,-0.67803 8.27877,-2.09085 10.86755,-4.41965 1.77519,-1.59684 2.72764,-3.03924 3.69103,-5.62182 1.067,-2.86033 1.11351,-6.81768 0.12148,-9.34956 -2.7224,-6.94817 -11.07019,-12.02498 -26.79041,-16.28604 -3.3765,-0.9153 -14.72878,-3.3782 -15.58648,-3.39041 z" id="path5175" style="fill:#f7931a;fill-opacity:1" inkscape:connector-curvature="0"/>
      </g>
      <path d="m -33.3029,1185.6662 c -6.57167,0 -11.94603,5.3195 -11.94603,11.8912 0,6.5716 5.37436,11.8912 11.94603,11.8912 6.57167,0 11.89122,-5.3196 11.89122,-11.8912 0,-6.5717 -5.31955,-11.8912 -11.89122,-11.8912 z m 252.56519,0 c -6.57166,0 -11.89122,5.3195 -11.89122,11.8912 0,6.5716 5.31956,11.8912 11.89122,11.8912 6.57167,0 11.94602,-5.3196 11.94602,-11.8912 0,-6.5717 -5.37435,-11.8912 -11.94602,-11.8912 z" id="path4279" style="fill:#f7f7f7;fill-opacity:1;stroke:none" inkscape:connector-curvature="0"/>
      <path d="m -42.62078,1204.8986 18.52991,-16.1036 36.41332,54.0063 -18.52994,16.1036 z" id="path4281" style="fill:url(#linearGradient4304);fill-opacity:1;stroke:none" inkscape:connector-curvature="0"/>
      <path d="m 209.99921,1204.8986 18.52991,-16.1036 36.41332,54.0063 -18.52994,16.1036 z" id="path4283" style="fill:url(#linearGradient4301);fill-opacity:1;stroke:none" inkscape:connector-curvature="0"/>
      <g transform="matrix(1.7535444,0,0,1.7535444,976.33271,757.52808)" id="g4285" style="fill:#000000;fill-opacity:0.14545456">
        <path d="m -431.20266,244.21875 c -3.85965,0 -7.01609,3.13146 -7.01609,7 0,3.86853 3.15644,7 7.01609,7 3.85965,0 6.98391,-3.13147 6.98391,-7 0,-3.86854 -3.12426,-7 -6.98391,-7 z" transform="translate(-144.0625,0)" id="path4287" style="fill:#000000;fill-opacity:0.14545456;stroke:none" inkscape:connector-curvature="0"/>
        <path d="m -431.20266,244.21875 c -3.85965,0 -7.01609,3.13146 -7.01609,7 0,3.86853 3.15644,7 7.01609,7 3.85965,0 6.98391,-3.13147 6.98391,-7 0,-3.86854 -3.12426,-7 -6.98391,-7 z" id="path4289" style="fill:#000000;fill-opacity:0.14545456;stroke:none" inkscape:connector-curvature="0"/>
      </g>
      <g transform="matrix(1.7535444,0,0,1.7535444,975.80711,756.65055)" id="g4291">
        <path d="m -431.20266,244.21875 c -3.85965,0 -7.01609,3.13146 -7.01609,7 0,3.86853 3.15644,7 7.01609,7 3.85965,0 6.98391,-3.13147 6.98391,-7 0,-3.86854 -3.12426,-7 -6.98391,-7 z" transform="translate(-144.0625,0)" id="path4293" style="fill:#f7f7f7;fill-opacity:1;stroke:none" inkscape:connector-curvature="0"/>
        <path d="m -431.20266,244.21875 c -3.85965,0 -7.01609,3.13146 -7.01609,7 0,3.86853 3.15644,7 7.01609,7 3.85965,0 6.98391,-3.13147 6.98391,-7 0,-3.86854 -3.12426,-7 -6.98391,-7 z" id="path4295" style="fill:#f7f7f7;fill-opacity:1;stroke:none" inkscape:connector-curvature="0"/>
      </g>
      <path d="m -93.46358,1227.9871 373.25445,0 c 21.51098,0 38.82849,17.3175 38.82849,38.8284 l -23.79811,148.8008 -403.31521,0 -23.7981,-148.8008 c -3.39714,-21.241 17.31751,-38.8284 38.82848,-38.8284 z" id="path4303" style="fill:#000000;fill-opacity:0;stroke:none" inkscape:connector-curvature="0"/>
      <path d="m -93.46358,1227.9871 373.25445,0 c 21.51098,0 38.82849,17.3175 38.82849,38.8284 l -23.79811,148.8008 -403.31521,0 -23.7981,-148.8008 c -3.39714,-21.241 17.31751,-38.8284 38.82848,-38.8284 z" id="path4313" style="fill:#000000;fill-opacity:0.05882353;stroke:none" inkscape:connector-curvature="0"/>
    </g>
    <g transform="translate(0,-0.50509)" id="g4384"/>
    <g transform="matrix(1.7535444,0,0,1.7535444,2826.8415,-306.20655)" id="g4599" style="fill:#000000;fill-opacity:1"/>
  </g>
</svg>