<svg width="791" height="176" viewBox="0 0 791 176" fill="none" xmlns="http://www.w3.org/2000/svg">
<g clip-path="url(#clip0_535_751)">
<path d="M352.6 93.1001V92.8001C352.6 76.6001 364.8 68.4001 383 68.4001C390.3 68.4001 397.2 69.7001 401.6 71.4001V70.1001C401.6 61.9001 396.6 57.4001 386.1 57.4001C377.9 57.4001 371.6 59.0001 364.6 61.7001L359 42.6001C367.7 39.0001 377 36.6001 390.4 36.6001C404.3 36.6001 413.7 39.9001 419.9 46.0001C425.8 51.7001 428.2 59.8001 428.2 70.6001V115.1H401.4V106.9C395.8 112.8 388.8 116.8 378.5 116.8C363.8 117 352.6 108.4 352.6 93.1001ZM401.9 87.2001V83.6001C399 82.5001 395.2 81.6001 391.2 81.6001C383.2 81.6001 378.7 85.3001 378.7 91.2001V91.5001C378.7 96.8001 382.7 99.9001 388.3 99.9001C396.3 100 401.9 95.1001 401.9 87.2001Z" fill="white"/>
<path d="M439.6 37.8002H466.8V53.4002C471.2 43.0002 478.3 35.9002 491.3 36.5002V65.1002H489C474.7 65.1002 466.8 73.1002 466.8 91.0002V115.2H439.6V37.8002Z" fill="white"/>
<path d="M500.4 10.8L527.7 0V63.7L548.7 37.8H579.5L552.6 68.7L580.2 115.2H550.1L534.6 88.7L527.6 96.9V115.2H500.4V10.8V10.8Z" fill="white"/>
<path d="M579.1 76.9001V76.6001C579.1 54.1001 595.3 36.1001 618.2 36.1001C644.8 36.1001 657.1 55.7001 657.1 78.5001C657.1 80.2001 657.1 82.2001 657 84.1001H605.2C607.4 92.7001 613.4 96.9001 622 96.9001C628.7 96.9001 633.6 94.6001 639.2 89.0001L654.2 101.5C646.7 111.1 636.2 117.3 620.7 117.3C596.3 117.2 579.1 100.8 579.1 76.9001ZM631.8 70.2001C630.8 61.6001 625.6 56.2001 618.2 56.2001C610.9 56.2001 606.3 61.6001 604.7 70.2001H631.8Z" fill="white"/>
<path d="M671.6 91.2V59.6H662.4V37.8H671.6V18.2L698.6 8V37.8H716.6V59.6H698.6V86C698.6 91.6 701 93.7 706.1 93.7C709.7 93.7 713.1 92.7 716.4 91.1V112.3C711.4 115 705.1 116.9 697.5 116.9C681 116.9 671.6 109.7 671.6 91.2Z" fill="white"/>
<path d="M722.7 105.4L732.9 89.0999C741.9 94.9999 751.4 97.9999 759.4 97.9999C764.1 97.9999 766.4 96.5999 766.4 93.8999V93.5999C766.4 90.2999 762 89.1999 753.8 86.8999C738.5 82.9999 726.3 77.6999 726.3 62.2999V61.9999C726.3 45.4999 739.6 36.3999 757.4 36.3999C768.8 36.3999 780.3 39.6999 789.3 45.3999L780 62.4999C772 57.8999 763.2 55.1999 757.1 55.1999C752.9 55.1999 750.8 56.7999 750.8 59.0999V59.3999C750.8 62.3999 755.4 63.7999 763.4 66.2999C778.7 70.3999 790.9 75.8999 790.9 90.8999V91.1999C790.9 108.2 778.2 117.1 759.2 117.1C746 117 733.4 113.3 722.7 105.4Z" fill="white"/>
<path d="M31.1 0H63.1L39.7 87.3H104.3L43.8 175.3L64.5 115.3H0L31.1 0Z" fill="#FFC60B"/>
<path d="M318.4 36.1001C306.9 36.1001 299.2 40.8001 292.5 48.7001C288.4 40.7001 280.5 36.1001 270.2 36.1001C259.3 36.1001 252.2 42.0001 247.1 48.4001V37.8001H231L219.9 79.1001V115.3H247.1V73.2001C247.1 64.6001 251.7 60.2001 258.1 60.2001C264.5 60.2001 268.8 64.6001 268.8 73.2001V115.3H295.9V73.2001C295.9 64.6001 300.6 60.2001 307.1 60.2001C313.6 60.2001 317.7 64.6001 317.7 73.2001V115.3H344.9V64.4001C344.9 46.3001 335 36.1001 318.4 36.1001Z" fill="white"/>
<path d="M172.2 0L154.9 64.1L124.9 0H95.1998L75.7998 72.1H107.4L113.7 48.8L144.8 115.3H172.8L203.8 0H172.2Z" fill="white"/>
</g>
<defs>
<clipPath id="clip0_535_751">
<rect width="790.9" height="175.3" fill="white"/>
</clipPath>
</defs>
</svg>
