<svg width="791" height="108" viewBox="0 0 791 108" fill="none" xmlns="http://www.w3.org/2000/svg">
<path d="M67.3881 0L38.1963 35.2713L61.8692 66.6073L0 100.858L42.408 63.5466L20.0421 31.6275L67.3881 0Z" fill="white"/>
<path d="M49.9034 22.8826L119.76 17.1984L92.3114 38.7692L84.9045 108L75.7549 36.4372L84.0332 29.8785L49.9034 22.8826Z" fill="white"/>
<path d="M107.048 86.2834L148.004 4.80972L192.881 101.15L146.842 36.1457L133.045 59.6113L155.411 53.3441L107.048 86.2834Z" fill="white"/>
<path d="M246.569 37.3117L218.539 4.22672L181.795 45.3279L212.73 89.3441L255.138 52.3239L215.344 71.2713L200.385 45.3279L218.249 22.0081L246.569 37.3117Z" fill="white"/>
<path d="M265.75 12.5344L253.986 94.0081L278.676 63.2551L331.976 106.542L287.535 50.8664L312.08 14.2834L268.364 56.2591L265.75 12.5344Z" fill="white"/>
<path d="M377.484 6.2672L318.665 27.5466L343.064 51.4494L312.42 76.3725L378.646 98.2348L338.998 72.1457L362.525 48.8259L341.612 31.336L377.484 6.2672Z" fill="white"/>
<path d="M383.358 4.51821L432.011 35.8542L415.745 55.9676L447.261 102.316L400.205 54.5101L412.841 38.4777L397.155 29.587L384.23 96.7773L383.358 4.51821Z" fill="white"/>
<path d="M578.346 2.76923L566.582 85.9919L532.017 50.8664L505.875 90.8016L526.498 21.5708L555.69 56.2591L578.346 2.76923Z" fill="white"/>
<path d="M642.846 6.2672L584.027 27.5466L608.426 51.4494L577.782 76.3725L644.008 98.2348L604.36 72.1457L627.887 48.8259L606.974 31.336L642.846 6.2672Z" fill="white"/>
<path d="M742.08 4.22672L707.37 97.0688L678.178 52.4696L655.521 92.2591L636.641 23.7571L658.717 60.4858L677.016 32.0648L703.739 64.7125L742.08 4.22672Z" fill="white"/>
<path d="M791 0L761.808 35.2713L785.481 66.6073L723.612 100.858L766.02 63.5466L743.654 31.6275L791 0Z" fill="white"/>
</svg>
