<?xml version="1.0" encoding="UTF-8" standalone="no"?>
<svg viewBox="0 0 450.09876 63.240002" version="1.1" id="svg31" sodipodi:docname="title-logo-inverted-alpha.svg" width="450.09875" height="63.240002" inkscape:version="1.1.1 (c3084ef, 2021-09-22)" xmlns:inkscape="http://www.inkscape.org/namespaces/inkscape" xmlns:sodipodi="http://sodipodi.sourceforge.net/DTD/sodipodi-0.dtd" xmlns="http://www.w3.org/2000/svg" xmlns:svg="http://www.w3.org/2000/svg">
  <sodipodi:namedview id="namedview33" pagecolor="#ffffff" bordercolor="#666666" borderopacity="1.0" inkscape:pageshadow="2" inkscape:pageopacity="0.0" inkscape:pagecheckerboard="0" showgrid="false" inkscape:zoom="1.25" inkscape:cx="359.6" inkscape:cy="23.6" inkscape:window-width="1296" inkscape:window-height="969" inkscape:window-x="0" inkscape:window-y="25" inkscape:window-maximized="0" inkscape:current-layer="svg31"/>
  <defs id="defs15">
    <linearGradient id="a" x1="54.68" y1="220.62" x2="129.66" y2="263.85001" gradientUnits="userSpaceOnUse" gradientTransform="translate(-50.154585,-218.38)">
      <stop offset="0" stop-color="#18ffff" id="stop2"/>
      <stop offset="0.02" stop-color="#1df9fc" id="stop4"/>
      <stop offset="0.39" stop-color="#7590cd" id="stop6"/>
      <stop offset="0.69" stop-color="#b542aa" id="stop8"/>
      <stop offset="0.9" stop-color="#dd1294" id="stop10"/>
      <stop offset="1" stop-color="#ec008c" id="stop12"/>
    </linearGradient>
  </defs>
  <path d="m 109.84542,0 h 2.57 l 29.05,61.27 h -15.62 l -3,-6.13 H 99.425415 l -2.87,6.13 h -15.61 z m 8.1,44.76 -6.82,-15 h -0.28 l -6.91,15 z" fill="#ffffff" id="path17"/>
  <path d="m 134.11542,1.97 h 15.12 l 12,28.56 12,-28.56 h 15.12 l -26.19,61.27 h -1.77 z" fill="#ffffff" id="path19"/>
  <path d="m 193.99542,1.97 h 14.53 v 46.85 h 25.79 v 12.45 h -40.32 z" fill="#ffffff" id="path21"/>
  <path d="m 267.02542,0 h 2.57 l 29.06,61.27 h -15.62 l -3,-6.13 h -23.38 l -2.87,6.13 h -15.61 z m 8.11,44.76 -6.82,-15 h -0.2 l -6.92,15 z" fill="#ffffff" id="path23"/>
  <path d="m 304.97542,1.97 h 14.53 v 26.49 h 0.2 l 17.14,-26.49 h 16 l -20.4,28.17 21.45,31.13 h -16.05 l -18.18,-28.76 h -0.2 v 28.76 h -14.49 z" fill="#ffffff" id="path25"/>
  <path d="m 359.52542,1.97 h 39.23 v 12.85 h -24.7 v 10.67 h 22.79 v 12.65 h -22.79 v 10.68 h 25.79 v 12.45 h -40.32 z" fill="#ffffff" id="path27"/>
  <path d="m 88.225415,1.94 -24.64,61.25 h -2 l -14.62,-34.16 -14.12,34.18 h -1.85 L 4.7754151,2.01 H 19.985415 l 12,27.94 7.19,-18.57 -3.76,-9.38 h 15 l 11.88,27.84 10.84,-27.86 z m -77.86,24.05 c 1.43,0.17 3.43,0.31 4.88,0.45 l -0.63,-1.46 c -0.84,0.13 -7.9599999,0.5 -4.25,1.01 z M 6.0254151,4.92 l 0.11,0.26 c -1.81,-0.02 -0.83,-0.06 -0.11,-0.26 z m 10.0799999,38 c 1.52,-0.16 3.28,-0.32 6,-0.48 l 1.35,3.18 c -2.81,-0.74 -19.9399999,-1.52 -7.35,-2.68 z M 9.1054151,20.5 l 3.4599999,-0.4 1.54,3.59 c -3.32,-0.57 -7.3099999,-0.71 -10.3699999,-1.63 -1.46,-1.02 4.38,-1.32 5.34,-1.54 z m 0.1,14.08 c -0.47,-0.54 2.7799999,-0.64 3.5099999,-0.79 1.59,-0.16 3.89,-0.37 5.46,-0.6 l 2.21,5.16 c -4.5,-0.21 -10.33,-0.43 -9.91,-0.65 0.57,-0.52 4.37,-0.72 5.43,-1 q 2.32,-0.52 -5.07,-1.05 C 6.2954151,35.29 9.6254151,34.94 9.1754151,34.62 Z m -0.84,5.21 C 12.365415,39.36 16.715415,39.28 20.725415,39.16 l 0.8,1.86 c -1.01,-0.13 -17.3099999,-0.54 -13.1899999,-1.21 z m -0.58,-8.86 c -1.66,-0.17 -3,-0.3 -4.57,-0.52 -8.45,-1.37 10.9999999,-2.27 12.6599999,-2.57 l 1.72,4 c -2.58,-0.22 -7.25,-0.65 -9.8399999,-0.89 z m 15.8599999,15.13 7.35,17.15 c -1,-0.46 -6.21,-1 -5.36,-1.51 0.85,-0.51 1.76,-0.69 0,-1 -3,-0.48 -8,-0.86 -3.61,-1.3 1.67,-0.33 7.12,-0.18 2.41,-1.83 -0.94,-0.89 3.12,-0.81 2.31,-1.56 -1.19,-0.66 -11.19,-0.67 -13.6,-0.91 -0.24,-0.05 -1.78,0 -1.47,-0.26 0.77,-0.15 2.36,-0.2 3.31,-0.26 2.4,-0.25 6.36,-0.07 8.53,-0.66 0.72,-0.25 -5.73,-0.53 -3.59,-1 1,-0.18 2.51,-0.33 3.56,-0.52 2.31,-0.49 -4.91,-0.93 -5.08,-1 -3.26,-0.51 1.68,-0.83 2.54,-1.05 3.27,-0.39 1.88,-0.57 -0.35,-0.78 -4.12,-0.47 -10.37,-0.56 -14.3999999,-1.3 -1.21,-1.28 16.9399999,-1.65 17.4499999,-2.21 z M 4.9054151,2.31 l 0.57,1.34 c -1.06,-0.25 -2.63,-0.75 -0.57,-1.34 z m -3,14.56 c -6.67,-1.21 6.26,-1.07 6.94,-2.09 0,-0.35 -3.32,-0.69 -4,-1 -0.54,-0.75 3.88,-0.6 4.54,-0.76 l 2.1399999,5 C 8.6254151,17.62 4.6954151,17.24 1.9554151,16.87 Z m 1.22,-8.86 a 12,12 0 0 1 3.77,-0.93 l 0.92,2.13 c -1.27,-0.32 -4.91,-0.2 -4.64,-1.2 z" fill="url(#a)" id="path29" style="fill:url(#a)"/>
</svg>